<?xml version="1.0" encoding="utf-8"?>
<!-- Generator: Adobe Illustrator 27.5.0, SVG Export Plug-In . SVG Version: 6.00 Build 0)  -->
<svg version="1.1" xmlns="http://www.w3.org/2000/svg" xmlns:xlink="http://www.w3.org/1999/xlink" x="0px" y="0px"
	 viewBox="0 0 500 500" style="enable-background:new 0 0 500 500;" xml:space="preserve">
<g id="Floor">
	<g>
		<ellipse style="fill:#F5F5F5;" cx="250" cy="344.299" rx="229.406" ry="136.121"/>
	</g>
</g>
<g id="Shadows">
	<ellipse style="fill:#E0E0E0;" cx="329.528" cy="417.851" rx="49.777" ry="28.748"/>
	<path style="fill:#E0E0E0;" d="M96.48,419.905l2.826,1.63c1.43,0.824,3.19,0.825,4.62,0.002L350.817,279.43
		c1.331-0.766,1.332-2.686,0.002-3.454l-2.823-1.628c-1.43-0.825-3.19-0.826-4.621-0.002L96.481,416.451
		C95.15,417.217,95.149,419.138,96.48,419.905z"/>
</g>
<g id="Clouds">
	<g>
		<path style="fill:#E6E6E6;" d="M182.915,64.746l-4.376,2.526v-3.473c0-2.018-1.651-2.715-3.668-1.55l-0.153,0.088
			c-0.887,0.512-1.703,1.303-2.34,2.2c-0.113-3.4-2.975-4.548-6.467-2.532l-0.27,0.156c-3.563,2.057-6.477,6.656-6.477,10.218v6.076
			l-4.04,2.332c-1.712,0.988-3.112,3.197-3.112,4.909c0,1.712,1.4,2.303,3.112,1.315l5.38-3.106
			c0.001,0.001,0.003,0.002,0.004,0.003l10.537-6.083c0.001-0.002,0.002-0.004,0.003-0.006l11.867-6.85
			c1.712-0.988,3.112-3.197,3.112-4.909C186.027,64.35,184.627,63.758,182.915,64.746z"/>
		<path style="fill:#E6E6E6;" d="M131.291,66.698l-6.661,3.845v-5.288c0-3.072-2.513-4.134-5.585-2.36l-0.233,0.134
			c-1.351,0.78-2.593,1.984-3.562,3.349c-0.172-5.176-4.529-6.923-9.845-3.855l-0.411,0.238c-5.424,3.131-9.861,10.132-9.861,15.556
			v9.25l-6.151,3.55c-2.606,1.504-4.737,4.867-4.737,7.473c0,2.606,2.132,3.507,4.737,2.002l8.191-4.728
			c0.002,0.002,0.004,0.003,0.006,0.005l16.04-9.261c0.002-0.003,0.003-0.006,0.004-0.008l18.066-10.428
			c2.606-1.504,4.737-4.867,4.737-7.473C136.029,66.095,133.897,65.194,131.291,66.698z"/>
	</g>
</g>
<g id="Icons">
	<g>
		<path style="fill:#BA68C8;" d="M71.226,150.123l-7.401-4.267v0.014c-0.028-0.014-0.042-0.028-0.07-0.042l1.833-5.107l0.504-0.979
			l3.092-6.03l-4.952-2.841c-0.112-0.07-0.224-0.14-0.336-0.196l-0.084-0.042h-0.014c-1.371-0.644-3.176-0.476-5.177,0.672
			c-1.763,1.021-3.386,2.644-4.687,4.547c-1.819,2.658-2.994,5.876-2.98,8.73c0.009,2.359,0.821,4.031,2.131,4.858l-0.003,0.003
			l0.024,0.014c0.009,0.006,0.019,0.01,0.028,0.016l2.098,1.196c-4.282,4.127-7.356,10.56-7.343,16.033l0.014,3.204l5.19,2.995
			l4.057-10.186l-0.196-0.826l6.086-3.512l4.043-2.336v-3.204c0-0.322-0.028-0.63-0.042-0.938c0.476-0.042,0.937-0.084,1.021-0.098
			C68.26,151.774,71.226,150.123,71.226,150.123z"/>
		<path style="fill:#BA68C8;" d="M47.889,166.701l0.014,3.204l5.19,2.995l4.057-10.186l-0.196-0.826l6.086-3.512
			c-0.951-2.798-1.861-5.415-1.861-5.415l-5.19-2.995C51.317,154.039,47.875,160.909,47.889,166.701z"/>
		<path style="opacity:0.4;" d="M71.226,150.123l-7.401-4.267v0.014c-0.028-0.014-0.042-0.028-0.07-0.042l1.833-5.107l0.504-0.979
			l3.092-6.03l-4.952-2.841c-0.112-0.07-0.224-0.14-0.336-0.196l-0.084-0.042h-0.014c-1.371-0.644-3.176-0.476-5.177,0.672
			c-1.763,1.021-3.386,2.644-4.687,4.547c-1.819,2.658-2.994,5.876-2.98,8.73c0.009,2.359,0.821,4.031,2.131,4.858l-0.003,0.003
			l0.024,0.014c0.009,0.006,0.019,0.01,0.028,0.016l2.098,1.196c-4.282,4.127-7.356,10.56-7.343,16.033l0.014,3.204l5.19,2.995
			l4.057-10.186l-0.196-0.826l6.086-3.512l4.043-2.336v-3.204c0-0.322-0.028-0.63-0.042-0.938c0.476-0.042,0.937-0.084,1.021-0.098
			C68.26,151.774,71.226,150.123,71.226,150.123z"/>
		<path style="fill:#BA68C8;" d="M63.809,134.299c-4.249,2.453-7.681,8.398-7.667,13.281c0.011,3.798,2.106,5.83,5.035,5.39
			c-4.67,4.07-8.112,10.934-8.095,16.733l0.009,3.2l21.62-12.482l-0.009-3.2c-0.016-5.799-3.488-8.671-8.166-7.344
			c2.922-2.938,4.999-7.38,4.988-11.177C71.51,133.816,68.055,131.847,63.809,134.299z"/>
	</g>
	<g>
		<path style="fill:#BA68C8;" d="M382.587,116.428l-4.88-2.814v0.009c-0.018-0.009-0.028-0.018-0.046-0.028l1.208-3.367l0.332-0.646
			l2.039-3.976l-3.266-1.873c-0.074-0.046-0.148-0.092-0.221-0.129l-0.055-0.028h-0.009c-0.904-0.424-2.094-0.314-3.413,0.443
			c-1.162,0.673-2.233,1.744-3.091,2.998c-1.199,1.753-1.974,3.875-1.965,5.757c0.006,1.555,0.541,2.658,1.405,3.203l-0.002,0.002
			l0.016,0.009c0.006,0.004,0.013,0.007,0.019,0.011l1.384,0.788c-2.823,2.722-4.851,6.963-4.842,10.572l0.009,2.113l3.422,1.975
			l2.675-6.716l-0.129-0.544l4.013-2.316l2.666-1.541v-2.113c0-0.212-0.018-0.415-0.028-0.618c0.314-0.028,0.618-0.055,0.673-0.065
			C380.631,117.517,382.587,116.428,382.587,116.428z"/>
		<path style="fill:#BA68C8;" d="M367.199,127.36l0.009,2.113l3.422,1.975l2.675-6.716l-0.129-0.544l4.013-2.316
			c-0.627-1.845-1.227-3.57-1.227-3.57l-3.423-1.975C369.459,119.011,367.189,123.541,367.199,127.36z"/>
		<path style="opacity:0.4;" d="M382.587,116.428l-4.88-2.814v0.009c-0.018-0.009-0.028-0.018-0.046-0.028l1.208-3.367l0.332-0.646
			l2.039-3.976l-3.266-1.873c-0.074-0.046-0.148-0.092-0.221-0.129l-0.055-0.028h-0.009c-0.904-0.424-2.094-0.314-3.413,0.443
			c-1.162,0.673-2.233,1.744-3.091,2.998c-1.199,1.753-1.974,3.875-1.965,5.757c0.006,1.555,0.541,2.658,1.405,3.203l-0.002,0.002
			l0.016,0.009c0.006,0.004,0.013,0.007,0.019,0.011l1.384,0.788c-2.823,2.722-4.851,6.963-4.842,10.572l0.009,2.113l3.422,1.975
			l2.675-6.716l-0.129-0.544l4.013-2.316l2.666-1.541v-2.113c0-0.212-0.018-0.415-0.028-0.618c0.314-0.028,0.618-0.055,0.673-0.065
			C380.631,117.517,382.587,116.428,382.587,116.428z"/>
		<path style="fill:#BA68C8;" d="M377.696,105.994c-2.801,1.617-5.065,5.538-5.056,8.757c0.007,2.504,1.389,3.844,3.32,3.554
			c-3.08,2.684-5.349,7.21-5.338,11.033l0.006,2.11l14.256-8.231l-0.006-2.11c-0.011-3.824-2.3-5.718-5.385-4.843
			c1.927-1.937,3.296-4.866,3.289-7.37C382.774,105.676,380.496,104.378,377.696,105.994z"/>
	</g>
</g>
<g id="Plants">
	<g>
		<path style="fill:#BA68C8;" d="M413.506,305.644l2.53,1.137l0.952,0.429l2.135,0.952c0,0,0.406-14.101,4.828-24.465
			c4.433-10.375,12.29-20.02,13.637-25.823c1.358-5.803-3.087-8.031-3.087-8.031c-9.377-3.575-18.476,10.062-20.995,21.424
			C410.999,282.63,413.506,305.644,413.506,305.644z"/>
		<g>
			<path style="opacity:0.4;" d="M413.506,305.644l2.53,1.137l0.952,0.429l2.135,0.952c0,0,0.406-14.101,4.828-24.465
				c4.433-10.375,12.29-20.02,13.637-25.823c1.358-5.803-3.087-8.031-3.087-8.031c-9.377-3.575-18.476,10.062-20.995,21.424
				C410.999,282.63,413.506,305.644,413.506,305.644z"/>
			<g>
				<path style="fill:#FFFFFF;" d="M416.036,306.782l0.952,0.429c-1.996-39.552,15.528-53.572,15.714-53.711
					c0.209-0.162,0.244-0.453,0.081-0.65c-0.151-0.209-0.441-0.244-0.65-0.081C431.947,252.908,414.19,267.055,416.036,306.782z"/>
			</g>
		</g>
	</g>
	<g>
		<path style="fill:#BA68C8;" d="M410.924,299.287c-0.151,3.633,3.76,10.155,3.76,10.155l6.708,4.747l0.882,0.627l9.818,6.952
			c0,0,4.793,0,7.404-5.002s-1.161-10.445-0.07-13.927c1.091-3.482,7.753-4.491,7.474-8.553c-0.302-4.062-6.894-8.495-5.884-12.116
			c1.021-3.621,3.273-5.048,3.992-8.031c0.731-2.971-1.265-4.654-2.971-4.956c-2.252-0.395-5.141,0.116-8.043,2.878
			c-2.901,2.751-4.004,4.665-7.265,5.466c-3.261,0.801-6.673,0.29-8.414,3.041c-1.741,2.762,0.29,8.275-1.52,10.445
			C414.986,293.194,411.064,295.654,410.924,299.287z"/>
		<path style="fill:#FFFFFF;" d="M421.393,314.189l0.882,0.627c0.627-7.811,2.24-14.53,4.248-20.159
			c5.606-1.683,13.184-1.01,13.254-0.998c0.267,0.023,0.487-0.162,0.511-0.418c0.023-0.255-0.162-0.487-0.418-0.511
			c-0.313-0.023-7.288-0.638-12.964,0.847c5.246-14.055,12.789-21.018,12.906-21.122c0.186-0.174,0.209-0.464,0.035-0.65
			c-0.174-0.197-0.464-0.209-0.662-0.035c-0.116,0.104-8.078,7.451-13.416,22.225c-0.058,0.081-0.093,0.186-0.093,0.29
			C423.679,299.867,422.066,306.494,421.393,314.189z"/>
	</g>
	<g>
		<path style="fill:#BA68C8;" d="M67.078,327.3l-2.53,1.137l-0.952,0.429l-2.135,0.952c0,0-0.406-14.101-4.828-24.465
			c-4.433-10.375-12.29-20.02-13.637-25.823c-1.358-5.803,3.087-8.031,3.087-8.031c9.377-3.575,18.476,10.062,20.995,21.424
			C69.585,304.286,67.078,327.3,67.078,327.3z"/>
		<path style="opacity:0.4;" d="M67.078,327.3l-2.53,1.137l-0.952,0.429l-2.135,0.952c0,0-0.406-14.101-4.828-24.465
			c-4.433-10.375-12.29-20.02-13.637-25.823c-1.358-5.803,3.087-8.031,3.087-8.031c9.377-3.575,18.476,10.062,20.995,21.424
			C69.585,304.286,67.078,327.3,67.078,327.3z"/>
		<g>
			<path style="fill:#FFFFFF;" d="M64.548,328.438l-0.952,0.429c1.996-39.552-15.528-53.572-15.714-53.711
				c-0.209-0.162-0.244-0.452-0.081-0.65c0.151-0.209,0.441-0.244,0.65-0.081C48.637,274.564,66.393,288.711,64.548,328.438z"/>
		</g>
	</g>
	<g>
		<path style="fill:#BA68C8;" d="M69.155,320.833c0.151,3.633-3.76,10.155-3.76,10.155l-6.708,4.747l-0.882,0.627l-9.818,6.952
			c0,0-4.793,0-7.404-5.002c-2.611-5.002,1.161-10.445,0.07-13.927c-1.091-3.482-7.753-4.491-7.474-8.553
			c0.302-4.062,6.894-8.495,5.884-12.116c-1.021-3.621-3.273-5.049-3.992-8.031c-0.731-2.971,1.265-4.654,2.971-4.956
			c2.252-0.395,5.141,0.116,8.043,2.878c2.901,2.75,4.004,4.665,7.265,5.466c3.261,0.801,6.673,0.29,8.414,3.041
			c1.741,2.762-0.29,8.275,1.52,10.445C65.093,314.74,69.016,317.2,69.155,320.833z"/>
		<path style="fill:#FFFFFF;" d="M58.687,335.735l-0.882,0.627c-0.627-7.811-2.24-14.53-4.248-20.159
			c-5.606-1.683-13.184-1.01-13.254-0.998c-0.267,0.023-0.487-0.162-0.511-0.418c-0.023-0.255,0.162-0.487,0.418-0.511
			c0.313-0.023,7.288-0.638,12.964,0.847c-5.246-14.055-12.789-21.018-12.906-21.122c-0.186-0.174-0.209-0.464-0.035-0.65
			c0.174-0.197,0.464-0.209,0.662-0.035c0.116,0.104,8.078,7.451,13.416,22.225c0.058,0.081,0.093,0.186,0.093,0.29
			C56.4,321.413,58.014,328.04,58.687,335.735z"/>
	</g>
</g>
<g id="Window">
	<g>
		<g>
			<path style="fill:#BA68C8;" d="M353.815,32.315l-7.913-4.569l-0.001,0.001c-1.085-0.837-2.63-1.056-3.985-0.275L97.51,168.145
				c-3.256,1.874-5.263,5.344-5.263,9.101v216.656c0,1.499,0.884,2.688,2.073,3.245l7.779,4.49l1.812-8.248l238.115-137.053
				c3.256-1.874,5.262-5.344,5.262-9.101V35.144L353.815,32.315z"/>
			<path style="opacity:0.7;fill:#FFFFFF;" d="M353.815,32.315l-7.913-4.569l-0.001,0.001c-1.085-0.837-2.63-1.056-3.985-0.275
				L97.51,168.145c-3.256,1.874-5.263,5.344-5.263,9.101v216.656c0,1.499,0.884,2.688,2.073,3.245l7.779,4.49l1.812-8.248
				l238.115-137.053c3.256-1.874,5.262-5.344,5.262-9.101V35.144L353.815,32.315z"/>
			<path style="fill:#BA68C8;" d="M105.134,178.359v214.323l-1.224,0.71l-1.812,8.251l-7.774-4.493
				c-1.187-0.563-2.081-1.751-2.081-3.244V177.245c0-1.959,0.551-3.844,1.53-5.448L105.134,178.359z"/>
			<path style="fill:#FAFAFA;" d="M355.167,35.113v216.661c0,3.758-2.008,7.223-5.264,9.096L129.618,387.662l-24.117,13.883
				c-2.387,1.383-5.374-0.343-5.374-3.097V181.786c0-3.758,2.008-7.223,5.264-9.096l24.227-13.944l220.175-126.73
				C352.18,30.633,355.167,32.359,355.167,35.113z"/>
			<path style="fill:#37474F;" d="M351.581,32.279L351.581,32.279c1.364,0,2.836,1.084,2.836,2.835v216.661
				c0,3.475-1.873,6.712-4.888,8.446L129.244,387.012l-24.119,13.884c-0.442,0.256-0.917,0.386-1.412,0.386
				c-1.364,0-2.836-1.084-2.836-2.835V181.786c0-3.475,1.873-6.712,4.888-8.446l24.227-13.944L350.169,32.665
				C350.611,32.409,351.086,32.279,351.581,32.279 M351.581,31.529c-0.597,0-1.21,0.153-1.788,0.487l-220.175,126.73l-24.227,13.944
				c-3.257,1.873-5.264,5.338-5.264,9.096v216.661c0,2.088,1.716,3.585,3.586,3.585c0.597,0,1.21-0.153,1.788-0.487l24.117-13.883
				l220.285-126.792c3.256-1.873,5.264-5.338,5.264-9.096V35.113C355.167,33.026,353.451,31.529,351.581,31.529L351.581,31.529z"/>
			<path style="fill:#37474F;" d="M129.618,158.747v228.916l-24.117,13.883c-2.387,1.383-5.374-0.343-5.374-3.097V181.786
				c0-3.758,2.008-7.223,5.264-9.096L129.618,158.747z"/>
		</g>
		<g>
			<path style="fill:#BA68C8;" d="M115.204,188.657l-8.891,0.206c-0.253,0.006-0.253-0.358,0-0.645l8.891-10.061
				c0.111-0.126,0.246-0.204,0.357-0.206l8.891-0.206c0.253-0.006,0.253,0.358,0,0.645l-8.891,10.06
				C115.45,188.576,115.315,188.654,115.204,188.657z"/>
			<path style="fill:#BA68C8;" d="M124.445,184.363l-8.871,10.042c-0.124,0.146-0.249,0.218-0.373,0.215l-8.896,0.216
				c-0.249-0.006-0.249-0.354,0-0.646l2.985-3.377c0.156-0.177,0.379-0.28,0.615-0.285l5.296-0.108
				c0.124-0.022,0.248-0.094,0.373-0.215l5.42-6.148c0.156-0.178,0.38-0.281,0.617-0.286l2.834-0.055
				C124.719,183.709,124.719,184.057,124.445,184.363z"/>
			<path style="fill:#BA68C8;" d="M124.445,190.388l-8.871,10.042c-0.124,0.146-0.249,0.218-0.373,0.215l-8.896,0.216
				c-0.249-0.006-0.249-0.354,0-0.646l2.985-3.377c0.156-0.177,0.379-0.28,0.615-0.285l5.296-0.108
				c0.124-0.022,0.248-0.094,0.373-0.215l5.42-6.148c0.156-0.178,0.38-0.281,0.617-0.286l2.834-0.054
				C124.719,189.733,124.719,190.081,124.445,190.388z"/>
		</g>
		<path style="fill:#37474F;" d="M192.053,346.887c-0.207,0-0.375-0.168-0.375-0.375V126.93c0-0.207,0.168-0.375,0.375-0.375
			s0.375,0.168,0.375,0.375v219.582C192.428,346.719,192.26,346.887,192.053,346.887z"/>
		<g>
			<path style="fill:#37474F;" d="M186.21,334.554v0.558c0,0.321-0.172,0.617-0.45,0.777l-20.867,12.011
				c-0.204,0.118-0.459-0.029-0.459-0.264v-0.558c0-0.321,0.171-0.617,0.45-0.777l20.867-12.011
				C185.955,334.171,186.21,334.319,186.21,334.554z"/>
			<path style="fill:#E0E0E0;" d="M186.21,338.626v0.558c0,0.321-0.172,0.617-0.45,0.777l-20.867,12.011
				c-0.204,0.118-0.459-0.029-0.459-0.264v-0.558c0-0.321,0.171-0.617,0.45-0.777l20.867-12.011
				C185.955,338.243,186.21,338.391,186.21,338.626z"/>
			<path style="fill:#E0E0E0;" d="M175.781,348.724v0.558c0,0.321-0.171,0.617-0.449,0.777l-10.438,5.985
				c-0.204,0.118-0.459-0.029-0.459-0.264v-0.558c0-0.321,0.171-0.617,0.45-0.777l10.438-5.985
				C175.526,348.341,175.781,348.489,175.781,348.724z"/>
			
				<ellipse transform="matrix(0.6011 -0.7992 0.7992 0.6011 -227.2755 262.1217)" style="fill:#BA68C8;" cx="148.937" cy="358.729" rx="17.718" ry="10.024"/>
			
				<ellipse transform="matrix(0.6011 -0.7992 0.7992 0.6011 -227.2755 262.1217)" style="opacity:0.7;fill:#FFFFFF;" cx="148.937" cy="358.729" rx="17.718" ry="10.024"/>
			<path style="fill:#37474F;" d="M142.272,374.491c-1.339,0-2.559-0.297-3.601-0.898c-2.216-1.279-3.437-3.825-3.437-7.169
				c0-7.468,6.063-17.043,13.515-21.347c3.987-2.302,7.797-2.747,10.452-1.211c2.216,1.279,3.437,3.825,3.437,7.169
				c0,7.468-6.063,17.043-13.514,21.346C146.702,373.779,144.345,374.491,142.272,374.491z M155.597,343.715
				c-1.936,0-4.163,0.679-6.472,2.013c-7.245,4.183-13.14,13.468-13.14,20.696c0,3.064,1.087,5.38,3.062,6.52
				c2.417,1.396,5.952,0.954,9.703-1.213c7.245-4.183,13.139-13.467,13.139-20.695c0-3.064-1.087-5.38-3.062-6.52
				C157.899,343.979,156.805,343.715,155.597,343.715z"/>
			<path style="fill:#BA68C8;" d="M160.631,362.348c0,1.613-1.308,3.676-2.921,4.607c-1.613,0.931-2.921,0.379-2.921-1.234
				c0-1.613,1.308-3.676,2.921-4.607C159.324,360.182,160.631,360.735,160.631,362.348z"/>
		</g>
		<g>
			<path style="fill:#37474F;" d="M186.21,296.603v0.558c0,0.321-0.172,0.617-0.45,0.777l-20.867,12.011
				c-0.204,0.118-0.459-0.029-0.459-0.264v-0.558c0-0.321,0.171-0.617,0.45-0.777l20.867-12.011
				C185.955,296.221,186.21,296.368,186.21,296.603z"/>
			<path style="fill:#E0E0E0;" d="M186.21,300.675v0.558c0,0.321-0.172,0.617-0.45,0.777l-20.867,12.011
				c-0.204,0.118-0.459-0.029-0.459-0.264v-0.558c0-0.321,0.171-0.617,0.45-0.777l20.867-12.011
				C185.955,300.293,186.21,300.44,186.21,300.675z"/>
			<path style="fill:#E0E0E0;" d="M175.781,310.773v0.558c0,0.321-0.171,0.617-0.449,0.777l-10.438,5.985
				c-0.204,0.118-0.459-0.029-0.459-0.264v-0.558c0-0.321,0.171-0.617,0.45-0.777l10.438-5.985
				C175.526,310.391,175.781,310.538,175.781,310.773z"/>
			
				<ellipse transform="matrix(0.6011 -0.7992 0.7992 0.6011 -196.9465 246.9834)" style="fill:#BA68C8;" cx="148.937" cy="320.779" rx="17.718" ry="10.024"/>
			
				<ellipse transform="matrix(0.6011 -0.7992 0.7992 0.6011 -196.9465 246.9834)" style="opacity:0.7;fill:#FFFFFF;" cx="148.937" cy="320.779" rx="17.718" ry="10.024"/>
			<path style="fill:#37474F;" d="M142.272,336.541c-1.339,0-2.559-0.297-3.601-0.898c-2.216-1.279-3.437-3.825-3.437-7.169
				c0-7.468,6.063-17.043,13.515-21.347c3.987-2.302,7.797-2.747,10.452-1.211c2.216,1.279,3.437,3.825,3.437,7.169
				c0,7.468-6.063,17.043-13.514,21.346C146.702,335.829,144.345,336.541,142.272,336.541z M155.597,305.764
				c-1.936,0-4.163,0.679-6.472,2.013c-7.245,4.183-13.14,13.468-13.14,20.696c0,3.064,1.087,5.38,3.062,6.52
				c2.417,1.396,5.952,0.954,9.703-1.213c7.245-4.183,13.139-13.467,13.139-20.695c0-3.064-1.087-5.38-3.062-6.52
				C157.899,306.029,156.805,305.764,155.597,305.764z"/>
			<path style="fill:#BA68C8;" d="M160.631,324.397c0,1.613-1.308,3.676-2.921,4.607c-1.613,0.931-2.921,0.379-2.921-1.234
				c0-1.613,1.308-3.676,2.921-4.607C159.324,322.232,160.631,322.784,160.631,324.397z"/>
		</g>
		<g>
			<path style="fill:#37474F;" d="M186.21,258.653v0.558c0,0.321-0.172,0.617-0.45,0.777l-20.867,12.011
				c-0.204,0.118-0.459-0.029-0.459-0.264v-0.558c0-0.321,0.171-0.617,0.45-0.777l20.867-12.011
				C185.955,258.27,186.21,258.418,186.21,258.653z"/>
			<path style="fill:#E0E0E0;" d="M186.21,262.725v0.558c0,0.321-0.172,0.617-0.45,0.777l-20.867,12.011
				c-0.204,0.118-0.459-0.029-0.459-0.264v-0.558c0-0.321,0.171-0.617,0.45-0.777l20.867-12.011
				C185.955,262.342,186.21,262.489,186.21,262.725z"/>
			<path style="fill:#E0E0E0;" d="M175.781,272.823v0.558c0,0.321-0.171,0.617-0.449,0.777l-10.438,5.985
				c-0.204,0.118-0.459-0.029-0.459-0.264v-0.558c0-0.321,0.171-0.617,0.45-0.777l10.438-5.985
				C175.526,272.44,175.781,272.588,175.781,272.823z"/>
			
				<ellipse transform="matrix(0.6011 -0.7992 0.7992 0.6011 -166.6176 231.8451)" style="fill:#BA68C8;" cx="148.937" cy="282.828" rx="17.718" ry="10.024"/>
			
				<ellipse transform="matrix(0.6011 -0.7992 0.7992 0.6011 -166.6176 231.8451)" style="opacity:0.7;fill:#FFFFFF;" cx="148.937" cy="282.828" rx="17.718" ry="10.024"/>
			<path style="fill:#37474F;" d="M142.272,298.59c-1.339,0-2.559-0.297-3.601-0.898c-2.216-1.279-3.437-3.825-3.437-7.169
				c0-7.468,6.063-17.043,13.515-21.347c3.987-2.302,7.797-2.747,10.452-1.211c2.216,1.279,3.437,3.825,3.437,7.169
				c0,7.468-6.063,17.043-13.514,21.346C146.702,297.878,144.345,298.59,142.272,298.59z M155.597,267.814
				c-1.936,0-4.163,0.679-6.472,2.013c-7.245,4.183-13.14,13.468-13.14,20.696c0,3.064,1.087,5.38,3.062,6.52
				c2.417,1.396,5.952,0.954,9.703-1.213c7.245-4.183,13.139-13.467,13.139-20.695c0-3.064-1.087-5.38-3.062-6.52
				C157.899,268.078,156.805,267.814,155.597,267.814z"/>
			<path style="fill:#BA68C8;" d="M160.631,286.447c0,1.613-1.308,3.676-2.921,4.607c-1.613,0.931-2.921,0.379-2.921-1.234
				c0-1.613,1.308-3.676,2.921-4.607C159.324,284.281,160.631,284.834,160.631,286.447z"/>
		</g>
		<g>
			<path style="fill:#37474F;" d="M186.21,220.702v0.558c0,0.321-0.172,0.617-0.45,0.777l-20.867,12.011
				c-0.204,0.118-0.459-0.029-0.459-0.264v-0.558c0-0.321,0.171-0.617,0.45-0.777l20.867-12.011
				C185.955,220.32,186.21,220.467,186.21,220.702z"/>
			<path style="fill:#E0E0E0;" d="M186.21,224.774v0.558c0,0.321-0.172,0.617-0.45,0.777l-20.867,12.011
				c-0.204,0.118-0.459-0.029-0.459-0.264v-0.558c0-0.321,0.171-0.617,0.45-0.777l20.867-12.011
				C185.955,224.391,186.21,224.539,186.21,224.774z"/>
			<path style="fill:#E0E0E0;" d="M175.781,234.872v0.558c0,0.321-0.171,0.617-0.449,0.777l-10.438,5.985
				c-0.204,0.118-0.459-0.029-0.459-0.264v-0.558c0-0.321,0.171-0.617,0.45-0.777l10.438-5.985
				C175.526,234.49,175.781,234.637,175.781,234.872z"/>
			
				<ellipse transform="matrix(0.6011 -0.7992 0.7992 0.6011 -136.2886 216.7068)" style="fill:#BA68C8;" cx="148.937" cy="244.878" rx="17.718" ry="10.024"/>
			
				<ellipse transform="matrix(0.6011 -0.7992 0.7992 0.6011 -136.2886 216.7068)" style="opacity:0.7;fill:#FFFFFF;" cx="148.937" cy="244.878" rx="17.718" ry="10.024"/>
			<path style="fill:#37474F;" d="M142.272,260.639c-1.339,0-2.559-0.297-3.601-0.898c-2.216-1.279-3.437-3.825-3.437-7.169
				c0-7.468,6.063-17.043,13.515-21.347c3.987-2.302,7.797-2.747,10.452-1.211c2.216,1.279,3.437,3.825,3.437,7.169
				c0,7.468-6.063,17.043-13.514,21.346C146.702,259.928,144.345,260.639,142.272,260.639z M155.597,229.863
				c-1.936,0-4.163,0.679-6.472,2.013c-7.245,4.183-13.14,13.468-13.14,20.696c0,3.064,1.087,5.38,3.062,6.52
				c2.417,1.396,5.952,0.954,9.703-1.213c7.245-4.183,13.139-13.467,13.139-20.695c0-3.064-1.087-5.38-3.062-6.52
				C157.899,230.128,156.805,229.863,155.597,229.863z"/>
			<path style="fill:#BA68C8;" d="M160.631,248.496c0,1.613-1.308,3.676-2.921,4.607c-1.613,0.931-2.921,0.379-2.921-1.234
				c0-1.613,1.308-3.676,2.921-4.607C159.324,246.33,160.631,246.883,160.631,248.496z"/>
		</g>
		<g>
			
				<ellipse transform="matrix(0.6011 -0.7992 0.7992 0.6011 -78.4552 197.8976)" style="fill:#BA68C8;" cx="159.011" cy="177.539" rx="31.111" ry="17.601"/>
			
				<ellipse transform="matrix(0.6011 -0.7992 0.7992 0.6011 -78.4552 197.8976)" style="opacity:0.7;fill:#FFFFFF;" cx="159.011" cy="177.539" rx="31.111" ry="17.601"/>
			<path style="fill:#BA68C8;" d="M171.18,190.505c-1.868-3.224-6.757-6.488-6.757-6.488l-3.367,0.673l-7.791,1.507l-3.655,0.994
				c-4.258,3.371-0.951,15.406-0.41,17.257c2.985-0.342,6.307-1.484,9.812-3.508C163.468,198.367,167.634,194.715,171.18,190.505z"
				/>
			<path style="opacity:0.2;" d="M171.18,190.505c-1.868-3.224-6.757-6.488-6.757-6.488l-3.367,0.673l-7.791,1.507l-3.655,0.994
				c-4.258,3.371-0.951,15.406-0.41,17.257c2.985-0.342,6.307-1.484,9.812-3.508C163.468,198.367,167.634,194.715,171.18,190.505z"
				/>
			<path style="fill:#FFA8A7;" d="M164.422,188.474c-0.031,0.929-1.954,2.435-5.802,1.314c-3.847-1.122-5.355-3.591-5.355-3.591
				v-3.301l0.065-5.386l7.726,1.795v5.386C162.371,185.492,164.455,187.543,164.422,188.474z"/>
			<path style="fill:#F28F8F;" d="M161.056,180.522v2.587c-0.923-0.264-3.607-1.073-4.85-1.881c-1.514-0.985-1.851-2.67-1.851-2.67
				L161.056,180.522z"/>
			<path style="fill:#FFA8A7;" d="M168.719,171.353c0,0,0.289,4.617-0.513,7.278c-0.802,2.661-1.932,3.895-4.601,3.631
				c-2.669-0.265-5.074-0.962-6.3-1.323c-1.226-0.361-2.14-1.082-2.765-2.092c-0.625-1.01-1.21-1.339-1.21-1.339l-1.723,1.194
				c0,0-1.924-1.274-2.741-2.789c-0.818-1.515-0.265-6.973-0.265-6.973l12.119-4.28c0,0,6.204-1.274,6.324-1.25
				c0.12,0.024,1.154,0.601,1.491,1.419c0.337,0.818,1.178,2.26,1.034,2.573C169.424,167.714,168.719,171.353,168.719,171.353z"/>
			<path style="fill:#263238;" d="M162.034,173.188c0,0.376-0.305,0.681-0.681,0.681c-0.376,0-0.681-0.305-0.681-0.681
				c0-0.376,0.305-0.681,0.681-0.681C161.729,172.507,162.034,172.812,162.034,173.188z"/>
			<path style="fill:#263238;" d="M167.596,172.681c0,0.376-0.305,0.681-0.681,0.681c-0.376,0-0.681-0.305-0.681-0.681
				c0-0.376,0.305-0.681,0.681-0.681C167.291,171.999,167.596,172.304,167.596,172.681z"/>
			<path style="fill:#263238;" d="M166.346,170.006l1.619,0.705c0,0,0.335-0.805-0.37-1.098
				C166.747,169.261,166.346,170.006,166.346,170.006z"/>
			<polygon style="fill:#F28F8F;" points="164.182,172.307 164.711,176.611 166.914,175.625 			"/>
			<path style="fill:#C87A7B;" d="M164.338,178.09c-0.065,0.721-0.444,1.052-0.806,1.202c-0.062,0.025-0.125,0.046-0.189,0.06
				c-0.406,0.102-0.843,0.006-1.193-0.233c-0.454-0.308-0.61-0.735-0.654-1.073c-0.044-0.306,0.004-0.537,0.004-0.537
				L164.338,178.09z"/>
			<path style="fill:#FFA8A7;" d="M171.829,185.796c-3.174-2.434-7.406-1.779-7.406-1.779l5.038,8.427
				c1.493-1.609,2.895-3.319,4.185-5.099C173.069,186.808,172.464,186.283,171.829,185.796z"/>
			<path style="fill:#F28F8F;" d="M163.343,179.352c-0.406,0.102-0.843,0.006-1.193-0.233c-0.454-0.308-0.61-0.735-0.654-1.073
				c0.346-0.065,0.995-0.112,1.412,0.319C163.186,178.656,163.301,179.033,163.343,179.352z"/>
			<path style="fill:#263238;" d="M153.192,172.659l0.194,2.798c0,0,1.948-0.216,1.659-2.38c0,0,9.506-0.858,11.718-8.584
				c0,0,2.02,2.084,1.956,6.861c0,0,2.789-1.635,1.443-4.841c0,0,1.539-0.609,1.122-2.212c-0.417-1.603-1.571-1.763-1.571-1.763
				s2.148-3.495-0.577-5.226s-6.573,1.507-6.573,1.507s-6.22-2.02-9.394,0.898s-3.302,5.066-3.302,5.066s-3.559,1.026-3.302,5.418
				c0.256,4.392,3.206,7.438,4.36,9.105c1.154,1.667,2.341,3.591,2.341,3.591l0.064-5.386c0,0-1.363,0.994-2.998-0.561
				c-1.635-1.555-1.747-4.008-0.385-5.082c0.995-0.784,2.157-0.579,2.788-0.087C153.006,171.991,153.168,172.315,153.192,172.659z"
				/>
			<path style="fill:#37474F;" d="M178.178,197.335v1.947c0,0.534-0.285,1.026-0.748,1.292l-34.706,19.976
				c-0.339,0.196-0.763-0.049-0.763-0.44v-1.947c0-0.534,0.285-1.026,0.747-1.292l34.706-19.976
				C177.754,196.698,178.178,196.943,178.178,197.335z"/>
			<path style="fill:#E0E0E0;" d="M169.82,207.231v1.048c0,0.287-0.154,0.552-0.403,0.695l-18.686,10.755
				c-0.183,0.106-0.411-0.026-0.411-0.237v-1.048c0-0.287,0.154-0.552,0.403-0.695l18.686-10.755
				C169.591,206.889,169.82,207.021,169.82,207.231z"/>
			<g>
				<path style="fill:#BA68C8;" d="M182.412,180.896c0,3.93-3.186,8.955-7.116,11.224c-3.93,2.269-7.116,0.922-7.116-3.007
					c0-3.93,3.186-8.955,7.116-11.224C179.226,175.62,182.412,176.966,182.412,180.896z"/>
				<g id="XMLID_1684_">
					<path id="XMLID_1689_" style="fill:#FFFFFF;" d="M175.58,181.317c1.096-0.633,1.226-0.704,1.659-0.934
						c0.4-0.213,0.618-0.272,0.762-0.299c0.192-0.036,0.328-0.026,0.472,0.035c0.144,0.061,0.233,0.146,0.307,0.295
						c0.056,0.112,0.123,0.291,0.141,0.681c0.02,0.421,0.024,0.549,0.024,1.645s-0.004,1.229-0.024,1.673
						c-0.018,0.411-0.085,0.667-0.141,0.844c-0.074,0.235-0.163,0.423-0.307,0.649c-0.144,0.227-0.28,0.395-0.472,0.58
						c-0.145,0.14-0.362,0.332-0.762,0.582c-0.433,0.27-0.563,0.349-1.659,0.982c-1.096,0.633-1.226,0.704-1.659,0.934
						c-0.4,0.213-0.618,0.271-0.762,0.299c-0.192,0.036-0.328,0.026-0.472-0.035c-0.144-0.061-0.233-0.146-0.307-0.295
						c-0.056-0.112-0.123-0.291-0.141-0.681c-0.02-0.422-0.024-0.549-0.024-1.645c0-1.096,0.004-1.229,0.024-1.673
						c0.018-0.411,0.085-0.667,0.141-0.844c0.075-0.235,0.164-0.423,0.307-0.649c0.144-0.227,0.28-0.395,0.472-0.58
						c0.145-0.14,0.362-0.332,0.762-0.582C174.354,182.03,174.484,181.95,175.58,181.317 M175.58,180.578
						c-1.115,0.644-1.255,0.729-1.693,1.002c-0.437,0.272-0.735,0.514-0.997,0.766c-0.27,0.261-0.499,0.533-0.727,0.893
						c-0.228,0.36-0.369,0.67-0.474,1.001c-0.101,0.32-0.171,0.658-0.191,1.107c-0.02,0.45-0.025,0.592-0.025,1.707
						c0,1.115,0.005,1.252,0.025,1.679c0.02,0.426,0.089,0.684,0.191,0.886c0.105,0.209,0.245,0.357,0.474,0.454
						c0.228,0.096,0.457,0.105,0.727,0.054c0.261-0.049,0.56-0.152,0.997-0.385c0.438-0.233,0.578-0.309,1.693-0.953
						c1.115-0.644,1.255-0.729,1.693-1.002c0.437-0.272,0.735-0.514,0.997-0.766c0.27-0.261,0.499-0.533,0.727-0.893
						c0.228-0.36,0.369-0.67,0.474-1.001c0.101-0.32,0.171-0.658,0.191-1.107c0.02-0.449,0.025-0.592,0.025-1.707
						c0-1.115-0.005-1.252-0.025-1.679c-0.02-0.425-0.089-0.684-0.191-0.886c-0.105-0.209-0.245-0.357-0.474-0.454
						c-0.228-0.096-0.457-0.105-0.727-0.054c-0.261,0.049-0.56,0.152-0.997,0.385C176.835,179.858,176.695,179.934,175.58,180.578"
						/>
					<path id="XMLID_1686_" style="fill:#FFFFFF;" d="M175.58,182.575c-1.164,0.672-2.108,2.161-2.108,3.326
						c0,1.164,0.944,1.563,2.108,0.891c1.164-0.672,2.108-2.161,2.108-3.326C177.689,182.302,176.745,181.903,175.58,182.575
						 M175.58,186.052c-0.756,0.436-1.369,0.177-1.369-0.578s0.613-1.722,1.369-2.159c0.756-0.436,1.369-0.177,1.369,0.578
						S176.336,185.616,175.58,186.052"/>
					<path id="XMLID_1685_" style="fill:#FFFFFF;" d="M178.265,180.942c0,0.272-0.221,0.62-0.493,0.777
						c-0.272,0.157-0.493,0.064-0.493-0.208c0-0.272,0.221-0.62,0.493-0.777C178.044,180.577,178.265,180.67,178.265,180.942"/>
				</g>
			</g>
			<path style="fill:#FFA8A7;" d="M149.61,187.191c-5.579,0.77-6.3,7.118-6.3,7.118v9.646c1.868,0.613,4.013,0.766,6.356,0.435
				c0.893-3.134,1.845-6.839,2.253-9.648C152.784,188.778,149.61,187.191,149.61,187.191z"/>
		</g>
		<g>
			<g>
				<path style="fill:#BA68C8;" d="M349.454,64.858v49.936c0,2.24-1.197,4.305-3.137,5.421l-145.654,83.836
					c-1.423,0.824-3.203-0.204-3.203-1.846v-49.936c0-2.24,1.196-4.304,3.137-5.421l145.654-83.836
					C347.674,62.188,349.454,63.216,349.454,64.858z"/>
				<path style="opacity:0.7;fill:#FFFFFF;" d="M349.454,64.858v49.936c0,2.24-1.197,4.305-3.137,5.421l-145.654,83.836
					c-1.423,0.824-3.203-0.204-3.203-1.846v-49.936c0-2.24,1.196-4.304,3.137-5.421l145.654-83.836
					C347.674,62.188,349.454,63.216,349.454,64.858z"/>
				<g>
					<path style="fill:#FFFFFF;" d="M252.855,126.089v38.688c0,1.735-0.927,3.335-2.431,4.2l-44.771,25.768
						c-1.102,0.639-2.481-0.158-2.481-1.43v-38.688c0-1.735,0.927-3.335,2.431-4.2l44.771-25.768
						C251.476,124.021,252.855,124.818,252.855,126.089z"/>
					<path style="fill:#37474F;" d="M252.859,159.426v5.35c0,1.738-0.93,3.342-2.436,4.199l-7.749,4.469l-15.743,9.059l7.859-16.368
						l5.644-11.74c1.028-2.142,3.293-3.452,4.321-2.497L252.859,159.426z"/>
					<path style="fill:#455A64;" d="M242.674,173.444l-15.743,9.059l-21.277,12.242c-1.102,0.637-2.485-0.159-2.485-1.432v-3.477
						l15.462-32.197c1.028-2.13,3.293-3.44,4.321-2.485l11.838,10.981L242.674,173.444z"/>
					<path style="fill:#455A64;" d="M248.326,139.114c0,3.167-2.567,7.217-5.734,9.045c-3.167,1.828-5.734,0.743-5.734-2.424
						c0-3.167,2.567-7.217,5.734-9.045C245.759,134.862,248.326,135.947,248.326,139.114z"/>
				</g>
				<g>
					<path style="fill:#FFFFFF;" d="M343.3,93.053v0.956c0,0.55-0.294,1.057-0.771,1.332l-84.807,48.765
						c-0.35,0.203-0.787-0.05-0.787-0.453v-0.956c0-0.55,0.294-1.058,0.771-1.332L342.513,92.6
						C342.862,92.397,343.3,92.65,343.3,93.053z"/>
					<path style="fill:#FFFFFF;" d="M343.3,100.036v0.956c0,0.55-0.294,1.058-0.771,1.332l-84.807,48.765
						c-0.35,0.202-0.787-0.05-0.787-0.454v-0.956c0-0.55,0.294-1.057,0.771-1.332l84.807-48.765
						C342.862,99.38,343.3,99.633,343.3,100.036z"/>
					<path style="fill:#FFFFFF;" d="M343.3,79.088v0.956c0,0.55-0.294,1.058-0.771,1.332l-84.807,48.765
						c-0.35,0.202-0.787-0.05-0.787-0.454v-0.956c0-0.55,0.294-1.057,0.771-1.332l84.807-48.765
						C342.862,78.432,343.3,78.685,343.3,79.088z"/>
					<path style="fill:#FFFFFF;" d="M343.3,86.071v0.956c0,0.55-0.294,1.057-0.771,1.332l-84.807,48.765
						c-0.35,0.203-0.787-0.05-0.787-0.453v-0.956c0-0.55,0.294-1.057,0.771-1.332l84.807-48.765
						C342.862,85.415,343.3,85.667,343.3,86.071z"/>
					<path style="fill:#FFFFFF;" d="M325.416,117.353v0.956c0,0.55-0.294,1.057-0.771,1.332l-66.923,38.431
						c-0.35,0.203-0.787-0.05-0.787-0.453v-0.956c0-0.55,0.294-1.058,0.771-1.332l66.923-38.431
						C324.978,116.697,325.416,116.95,325.416,117.353z"/>
				</g>
			</g>
			<path style="fill:#455A64;" d="M253.646,180.197v0.956c0,0.55-0.294,1.057-0.771,1.332l-54.629,31.422
				c-0.35,0.202-0.787-0.05-0.787-0.454v-0.956c0-0.55,0.294-1.058,0.771-1.332l54.629-31.422
				C253.209,179.541,253.646,179.794,253.646,180.197z"/>
			<path style="fill:#455A64;" d="M253.646,108.253v0.956c0,0.55-0.294,1.057-0.771,1.332l-54.629,31.422
				c-0.35,0.202-0.787-0.05-0.787-0.454v-0.956c0-0.55,0.294-1.058,0.771-1.332l54.629-31.422
				C253.209,107.597,253.646,107.849,253.646,108.253z"/>
			<g>
				<path style="fill:#BA68C8;" d="M349.454,201.147v49.936c0,2.24-1.197,4.305-3.137,5.421L200.663,340.34
					c-1.423,0.824-3.203-0.204-3.203-1.846v-49.936c0-2.24,1.196-4.305,3.137-5.421l145.654-83.836
					C347.674,198.476,349.454,199.505,349.454,201.147z"/>
				<path style="opacity:0.7;fill:#FFFFFF;" d="M349.454,201.147v49.936c0,2.24-1.197,4.305-3.137,5.421L200.663,340.34
					c-1.423,0.824-3.203-0.204-3.203-1.846v-49.936c0-2.24,1.196-4.305,3.137-5.421l145.654-83.836
					C347.674,198.476,349.454,199.505,349.454,201.147z"/>
				<g>
					<path style="fill:#FFFFFF;" d="M252.855,262.378v38.688c0,1.735-0.927,3.335-2.431,4.2l-44.771,25.768
						c-1.102,0.639-2.481-0.158-2.481-1.43v-38.688c0-1.735,0.927-3.335,2.431-4.2l44.771-25.768
						C251.476,260.309,252.855,261.106,252.855,262.378z"/>
					<path style="fill:#37474F;" d="M252.859,295.715v5.35c0,1.738-0.93,3.342-2.436,4.199l-7.749,4.468l-15.743,9.059l7.859-16.368
						l5.644-11.74c1.028-2.142,3.293-3.452,4.321-2.497L252.859,295.715z"/>
					<path style="fill:#455A64;" d="M242.674,309.732l-15.743,9.059l-21.277,12.242c-1.102,0.637-2.485-0.159-2.485-1.432v-3.477
						l15.462-32.197c1.028-2.13,3.293-3.44,4.321-2.485l11.838,10.981L242.674,309.732z"/>
					<path style="fill:#455A64;" d="M248.326,275.402c0,3.167-2.567,7.217-5.734,9.045c-3.167,1.828-5.734,0.743-5.734-2.424
						c0-3.167,2.567-7.217,5.734-9.045C245.759,271.15,248.326,272.235,248.326,275.402z"/>
				</g>
				<g>
					<path style="fill:#FFFFFF;" d="M343.3,229.342v0.956c0,0.55-0.294,1.058-0.771,1.332l-84.807,48.765
						c-0.35,0.202-0.787-0.05-0.787-0.454v-0.956c0-0.55,0.294-1.057,0.771-1.332l84.807-48.765
						C342.862,228.686,343.3,228.939,343.3,229.342z"/>
					<path style="fill:#FFFFFF;" d="M343.3,236.325v0.956c0,0.55-0.294,1.057-0.771,1.332l-84.807,48.765
						c-0.35,0.203-0.787-0.05-0.787-0.453v-0.956c0-0.55,0.294-1.057,0.771-1.332l84.807-48.765
						C342.862,235.669,343.3,235.922,343.3,236.325z"/>
					<path style="fill:#FFFFFF;" d="M343.3,215.377v0.956c0,0.55-0.294,1.057-0.771,1.332l-84.807,48.765
						c-0.35,0.203-0.787-0.05-0.787-0.453v-0.956c0-0.55,0.294-1.057,0.771-1.332l84.807-48.765
						C342.862,214.721,343.3,214.973,343.3,215.377z"/>
					<path style="fill:#FFFFFF;" d="M343.3,222.359v0.956c0,0.55-0.294,1.057-0.771,1.332l-84.807,48.765
						c-0.35,0.203-0.787-0.05-0.787-0.453v-0.956c0-0.55,0.294-1.058,0.771-1.332l84.807-48.765
						C342.862,221.703,343.3,221.956,343.3,222.359z"/>
					<path style="fill:#FFFFFF;" d="M325.416,253.642v0.956c0,0.55-0.294,1.058-0.771,1.332l-66.923,38.431
						c-0.35,0.203-0.787-0.05-0.787-0.453v-0.956c0-0.55,0.294-1.058,0.771-1.332l66.923-38.431
						C324.978,252.986,325.416,253.238,325.416,253.642z"/>
				</g>
			</g>
		</g>
		<g>
			<path style="fill:#BA68C8;" d="M328.167,52.777c0,1.499-1.216,3.417-2.715,4.282c-1.499,0.866-2.715,0.352-2.715-1.147
				c0-1.499,1.216-3.417,2.715-4.282C326.952,50.764,328.167,51.277,328.167,52.777z"/>
			<path style="fill:#BA68C8;" d="M337.475,47.403c0,1.499-1.216,3.417-2.715,4.282c-1.499,0.866-2.715,0.352-2.715-1.147
				s1.215-3.417,2.715-4.282C336.26,45.39,337.475,45.904,337.475,47.403z"/>
			<path style="fill:#BA68C8;" d="M346.783,42.029c0,1.499-1.215,3.417-2.715,4.282c-1.499,0.866-2.715,0.352-2.715-1.147
				c0-1.499,1.216-3.417,2.715-4.282C345.568,40.016,346.783,40.53,346.783,42.029z"/>
		</g>
		<g>
			<path style="opacity:0.4;" d="M328.167,52.777c0,1.499-1.216,3.417-2.715,4.282c-1.499,0.866-2.715,0.352-2.715-1.147
				c0-1.499,1.216-3.417,2.715-4.282C326.952,50.764,328.167,51.277,328.167,52.777z"/>
			<path style="opacity:0.4;" d="M337.475,47.403c0,1.499-1.216,3.417-2.715,4.282c-1.499,0.866-2.715,0.352-2.715-1.147
				s1.215-3.417,2.715-4.282C336.26,45.39,337.475,45.904,337.475,47.403z"/>
			<path style="opacity:0.4;" d="M346.783,42.029c0,1.499-1.215,3.417-2.715,4.282c-1.499,0.866-2.715,0.352-2.715-1.147
				c0-1.499,1.216-3.417,2.715-4.282C345.568,40.016,346.783,40.53,346.783,42.029z"/>
		</g>
		<g>
			<path style="fill:#BA68C8;" d="M355.755,135.035l-4.872-2.877l-0.001,0.004c-0.654-0.477-1.556-0.604-2.356-0.14l-147.881,85.118
				c-1.97,1.133-3.185,3.23-3.185,5.504v50.7c0,0.993,0.646,1.754,1.47,2.039l-0.002,0.002l4.623,2.804l-0.164-4.51l145.205-83.578
				c1.97-1.133,3.185-3.23,3.185-5.504v-47.52L355.755,135.035z"/>
			<path style="fill:#BA68C8;" d="M353.498,134.973l-147.881,85.118c-1.97,1.133-3.185,3.23-3.185,5.504v50.7
				c0,0.848,0.47,1.531,1.12,1.891l0,0.001l0.001-0.001c0.627,0.347,1.422,0.394,2.131-0.017l147.881-85.118
				c1.97-1.133,3.185-3.23,3.185-5.504v-50.7C356.75,135.181,354.943,134.136,353.498,134.973z"/>
			<path style="opacity:0.4;fill:#FFFFFF;" d="M356.75,136.847v50.7c0,2.274-1.215,4.37-3.185,5.504l-147.881,85.118
				c-1.444,0.837-3.252-0.207-3.252-1.874v-50.7c0-2.274,1.215-4.37,3.185-5.504l147.881-85.118
				C354.943,134.136,356.75,135.181,356.75,136.847z"/>
			<g>
				<path style="fill:#FFFFFF;" d="M258.674,199.015v39.279c0,1.762-0.941,3.386-2.468,4.264l-45.455,26.162
					c-1.119,0.648-2.519-0.161-2.519-1.452v-39.279c0-1.762,0.941-3.386,2.468-4.264l45.455-26.162
					C257.274,196.915,258.674,197.724,258.674,199.015z"/>
				<path style="fill:#BA68C8;" d="M258.678,232.862v5.432c0,1.765-0.945,3.393-2.473,4.263l-7.868,4.537l-15.984,9.198l7.98-16.618
					l5.73-11.92c1.044-2.175,3.344-3.505,4.388-2.536L258.678,232.862z"/>
				<path style="opacity:0.2;" d="M258.678,232.862v5.432c0,1.765-0.945,3.393-2.473,4.263l-7.868,4.537l-15.984,9.198l7.98-16.618
					l5.73-11.92c1.044-2.175,3.344-3.505,4.388-2.536L258.678,232.862z"/>
				<path style="fill:#BA68C8;" d="M248.337,247.094l-15.984,9.198l-21.602,12.429c-1.119,0.646-2.523-0.162-2.523-1.454v-3.53
					l15.698-32.689c1.044-2.163,3.343-3.493,4.387-2.523l12.019,11.149L248.337,247.094z"/>
				<path style="fill:#BA68C8;" d="M254.076,212.239c0,3.215-2.607,7.327-5.822,9.183c-3.215,1.856-5.822,0.755-5.822-2.461
					c0-3.216,2.607-7.327,5.822-9.183C251.469,207.922,254.076,209.023,254.076,212.239z"/>
			</g>
			<g>
				<path style="fill:#FFFFFF;" d="M350.502,165.474v0.971c0,0.559-0.298,1.074-0.783,1.352l-86.104,49.511
					c-0.355,0.206-0.799-0.051-0.799-0.46v-0.971c0-0.559,0.298-1.074,0.783-1.352l86.104-49.511
					C350.058,164.808,350.502,165.064,350.502,165.474z"/>
				<path style="fill:#FFFFFF;" d="M350.502,172.563v0.971c0,0.559-0.298,1.074-0.783,1.352l-86.104,49.511
					c-0.355,0.206-0.799-0.051-0.799-0.46v-0.971c0-0.559,0.298-1.074,0.783-1.352l86.104-49.511
					C350.058,171.897,350.502,172.154,350.502,172.563z"/>
				<path style="fill:#FFFFFF;" d="M350.502,151.295v0.971c0,0.559-0.298,1.074-0.783,1.352l-86.104,49.511
					c-0.355,0.206-0.799-0.051-0.799-0.46v-0.971c0-0.559,0.298-1.074,0.783-1.352l86.104-49.511
					C350.058,150.629,350.502,150.885,350.502,151.295z"/>
				<path style="fill:#FFFFFF;" d="M350.502,158.384v0.971c0,0.559-0.298,1.074-0.783,1.352l-86.104,49.511
					c-0.355,0.206-0.799-0.051-0.799-0.46v-0.971c0-0.559,0.298-1.074,0.783-1.352l86.104-49.511
					C350.058,157.718,350.502,157.975,350.502,158.384z"/>
				<path style="fill:#FFFFFF;" d="M332.344,190.145v0.971c0,0.559-0.298,1.074-0.783,1.352l-67.947,39.019
					c-0.355,0.206-0.799-0.051-0.799-0.46v-0.971c0-0.559,0.298-1.074,0.783-1.352l67.947-39.018
					C331.9,189.479,332.344,189.736,332.344,190.145z"/>
			</g>
		</g>
	</g>
</g>
<g id="Character">
	<g>
		<path style="fill:#BA68C8;" d="M368.883,398.714c0,0,1.109,0.42,1.026,2.188c-0.084,1.8-1.181,4.639-1.461,6.47
			c-0.279,1.831,0.465,5.927-0.124,6.889c-0.59,0.962-8.827,4.594-8.827,4.594l0.789-13.19c0,0,2.265-5.462,4.189-6.393
			C366.4,398.342,368.883,398.714,368.883,398.714z"/>
		<path style="opacity:0.4;" d="M368.883,398.714c0,0,1.109,0.42,1.026,2.188c-0.084,1.8-1.181,4.639-1.461,6.47
			c-0.279,1.831,0.465,5.927-0.124,6.889c-0.59,0.962-8.827,4.594-8.827,4.594l0.789-13.19c0,0,2.265-5.462,4.189-6.393
			C366.4,398.342,368.883,398.714,368.883,398.714z"/>
		<path style="fill:#37474F;" d="M367.486,397.752l1.396,0.962c0,0-3.103-0.155-4.779,2.514c-1.676,2.669-1.769,9.248-1.862,11.668
			c-0.093,2.421-0.621,5.182-3.103,6.113c-2.483,0.931-6.517-0.434-8.286-2.265c0,0-0.392-1.552,0.192-2.359
			c0.584-0.807,6.915-0.745,6.915-0.745s2.11-10.893,2.11-10.986c0-0.093,2.452-4.903,2.452-4.903H367.486z"/>
		<path style="fill:#37474F;" d="M315.132,420.509c0,0,0.607,1.689-0.161,2.155c-0.768,0.465-2.7,1.047-4.957,1.024
			c-2.258-0.023-6.564-1.217-8.03-1.295c-1.466-0.078-4.469,0.271-8.1,0.155c-3.631-0.116-6.424-1.401-7.332-2.039
			c-0.908-0.638-1.324-2.238-1.174-2.718C285.528,417.311,315.132,420.509,315.132,420.509z"/>
		<path style="fill:#455A64;" d="M285.282,417.584c0.276,0.715,1.691,2.614,5.027,3.508c0.253,0.067,0.529,0.127,0.842,0.171
			c2.867,0.432,7.977,0.075,10.293,0.045c2.577-0.03,4.998,1.117,8.193,1.087c3.203-0.037,4.722-0.499,5.37-1.646
			c0.656-1.147,0.186-1.773,0-4.037c-0.186-2.264-0.216-5.243-0.402-6.487c0,0-0.276-1.207-0.871-1.274l-9.31-0.462
			c-0.521,0.246-0.834,1.951-2.011,2.666c-1.184,0.715-5.281,0.283-7.515-0.03c-2.234-0.313-5.489-0.499-7.723,1.043
			C284.939,413.703,284.999,416.869,285.282,417.584z"/>
		<path style="fill:#FFA8A7;" d="M313.97,403.323l-0.233,5.633c0,0-0.698,3.212-4.841,3.212c0,0-4.469,0.093-4.469-3.491
			l0.279-6.983L313.97,403.323z"/>
		<path style="fill:#BA68C8;" d="M285.282,417.584c0.276,0.715,1.691,2.614,5.027,3.508c0.253,0.067,0.529,0.127,0.842,0.171v-0.008
			c-1.266-8.595,3.746-10.129,3.746-10.129c-2.234-0.313-5.489-0.499-7.723,1.043C284.939,413.703,284.999,416.869,285.282,417.584z
			"/>
		<path style="fill:#FFA8A7;" d="M359.821,386.004l2.917,7.527l-6.951,5.183l-4.531-6.61
			C351.256,392.104,353.832,385.242,359.821,386.004z"/>
		<path style="fill:#455A64;" d="M351.442,415.364c0.678,0.745,2.033,1.914,4.037,2.063c0.156,0.008,0.313,0.015,0.454,0.03
			c2.674,0.112,4.007-0.603,4.417-2.45c0.432-1.959,0.216-10.71,1.646-13.347c1.423-2.637,3.471-3.813,5.489-3.91l-4.744-4.215
			c0,0-1.989-0.871-4.32,0.931c0,0-2.942,1.765-2.637,4.245c0.313,2.488,1.609,3.396,1.549,6.495
			c-0.067,3.106-0.432,5.065-0.432,5.065s-2.637-0.79-4.245,0.916c-0.938,0.99-1.363,2.018-1.557,2.711
			C350.958,414.411,351.085,414.962,351.442,415.364z"/>
		<path style="fill:#FFFFFF;" d="M302.742,410.912c0,0-0.547-0.238-1.248,0.184c-0.926,0.559-1.117,3.933-0.838,4.492
			c0.279,0.559,0.745-0.047,0.884-1.28C301.681,413.075,302.155,411.607,302.742,410.912z"/>
		<path style="fill:#FFFFFF;" d="M299.71,411.543c0,0-0.419,0.205-0.791,1.337s-0.233,2.591-0.621,2.793
			c-0.388,0.202-0.521-0.775-0.528-1.753c-0.012-1.792,0.572-2.431,0.572-2.431S299.043,410.827,299.71,411.543z"/>
		<path style="fill:#FFFFFF;" d="M297.071,411.386c0,0-0.578,0.412-1.318,1.775c-0.747,1.375-0.751,2.173-0.978,2.282
			c-0.309,0.149-0.411-0.309-0.359-1.078c0.062-0.914,0.644-2.416,1.494-3.106C295.911,411.259,296.529,410.771,297.071,411.386z"/>
		<path style="fill:#BA68C8;" d="M351.442,415.364c0.678,0.745,2.033,1.914,4.037,2.063c0.156,0.008,0.313,0.015,0.454,0.03
			c-0.559-3.754,0.968-7.187,0.968-7.187s-2.637-0.79-4.245,0.916c-0.938,0.99-1.363,2.018-1.557,2.711
			C350.958,414.411,351.085,414.962,351.442,415.364z"/>
		<path style="fill:#FFFFFF;" d="M357.097,402.956c0,0,0.381,0.956,1.685,1.685c0,0,0.31,0.341-0.093,0.59
			c-0.403,0.248-1.364-0.7-1.364-0.7S356.516,403.555,357.097,402.956z"/>
		<path style="fill:#FFFFFF;" d="M357.29,406.427c0,0,0.421,1.068,0.995,1.815c0.574,0.747,0.605,1.257,0.202,1.272
			c-0.403,0.016-1.02-0.729-1.301-1.544C356.904,407.155,357.29,406.427,357.29,406.427z"/>
		<path style="fill:#FFFFFF;" d="M357.083,409.11c0,0,0.597,1.381,1.233,2.095c0.636,0.714-0.155,0.972-0.64,0.496
			C357.06,411.096,356.393,409.622,357.083,409.11z"/>
		<path style="fill:#37474F;" d="M301.228,355.296c0.186,3.538,1.743,21.04,2.048,26.254c0.313,5.214,1.184,22.098,1.184,22.098
			s2.108,1.117,5.519,1.363c3.419,0.253,4.409-1.117,4.409-1.117s0.499-4.283,1.177-7.694c0.685-3.411,3.791-22.59,3.664-29.047
			s-1.49-10.3-1.49-10.3l5.169-31.691c0,0,1.087,6.852,2.316,14.054v0.008c1.236,7.247,2.614,14.844,3.173,16.199
			c1.117,2.704,22.858,36.681,22.858,36.681s2.652-3.121,4.796-4.558c2.138-1.445,3.769-1.542,3.769-1.542
			s-8.848-24.526-10.8-28.302c-1.951-3.769-5.869-6.1-5.869-6.1s-0.231-48.963-0.507-52.18c-0.283-3.21-1.303-6.465-1.303-6.465
			l-37.128,5.31c0,0-2.987,30.901-3.292,36.428C300.61,340.214,301.042,351.759,301.228,355.296z"/>
		<path style="fill:#263238;" d="M325.225,339.216l-0.32-13.682l2.935-11.962c7.493-0.7,9.407-6.375,9.407-6.375
			c-4.841,4.7-11.358,4.841-11.358,4.841l-2.979,13.123C322.909,325.162,323.997,332.014,325.225,339.216z"/>
		<path style="fill:#FFA8A7;" d="M336.345,243.263c0,0,3.087,1.186,5.321,4.817c2.234,3.631,11.079,26.906,10.613,29.14
			c-0.466,2.234-12.886,18.169-12.886,18.169s-4.431-5.322-5.129-8.115c0,0,5.12-9.496,6.331-10.52c0,0-3.212-8.379-4.143-11.172
			C335.522,262.789,330.931,247.011,336.345,243.263z"/>
		<path style="fill:#F28F8F;" d="M310.013,222.477c0,0-2.731,3.662-2.793,4.624c-0.062,0.962,2.793,0.931,2.793,0.931V222.477z"/>
		<path style="fill:#FFA8A7;" d="M311.774,236.658c0.253,0.216,0.536,0.387,0.842,0.484c0,0,2.696,0.693,5.05-0.328
			c0.022-0.008,0.03-0.015,0.03-0.015v6.763h12.192c0,0-0.417-5.258-0.462-7.076c-0.052-1.817,3.15-6.435,0.73-15.745
			c-2.421-9.31-12.416-10.71-16.974-7.433c0,0-2.286,3.307-3.173,6.234C309.197,222.261,308.572,233.88,311.774,236.658z"/>
		<path style="fill:#BA68C8;" d="M305.95,271.85l-2.115,26.098c0,0,3.113,3.404,15.954,3.478c0,0,0.008,0,0.015,0
			c0.365,0.008,0.73,0,1.102,0c13.779-0.127,21.353-8.506,21.353-8.506l-6.889-17.808c0,0,3.448-6.8,4.871-15.73
			c0.008-0.022,0.008-0.037,0.008-0.037c0.156-1.013,0.29-2.048,0.395-3.106c0.991-10.427-3.597-13.838-7.88-13.965
			c-4.283-0.119-17.689,1.989-17.689,1.989l-12.289,13.466c0,0-0.745,5.958-0.313,9.124
			C302.904,270.017,305.95,271.85,305.95,271.85z"/>
		<path style="opacity:0.2;" d="M319.803,301.425c0.365,0.008,0.73,0,1.102,0c13.779-0.127,21.353-8.506,21.353-8.506l-6.889-17.808
			c0,0,3.448-6.8,4.871-15.73c-0.216,0.745-3.746,12.781-11.083,17.711c0,0,8.632,2.234,7.329,10.241
			C335.183,295.333,327.735,300.055,319.803,301.425z"/>
		<path style="fill:#F28F8F;" d="M311.774,236.658c0.253,0.216,0.536,0.387,0.842,0.484c0,0,2.696,0.693,5.05-0.328
			c0.022-0.008,0.03-0.015,0.03-0.015l0.201-1.348c0,0-3.463,1.832-6.107,1.207C311.782,236.658,311.782,236.658,311.774,236.658z"
			/>
		<path style="fill:#263238;" d="M319.209,222.501c1.66-0.603,3.542,0.466,3.964,2.18c0.124,0.505,0.152,1.105-0.01,1.799
			c-0.582,2.49-2.211,4.539-5.516,4.329c0,0,0.093,4.376,3.445,5.446c3.352,1.071,8.332,0.233,8.332,0.233s1.629-2.374,3.119-3.817
			c1.49-1.443,8.146-8.193,7.681-14.244s-4.748-6.75-4.748-6.75s1.895-2.659-0.14-5.33c-0.745-0.978-2.165-2.165-4.515-1.094
			c0,0-0.603-3.935-4.328-4.354c-3.724-0.419-5.215,2.631-5.215,2.631s-3.165-3.654-7.448-1.978
			c-4.283,1.676-2.793,5.749-2.793,5.749s-4.003-1.676-6.331,1.722c-2.327,3.398,0.419,8.938,5.307,10.52
			c0,0,0.884-2.653,2.327-4.05c0,0,0.512,2.7,2.048,2.933c0,0-1.769,4.283,0.838,5.865c0,0-1.257,3.398,0,3.538
			c0,0,0.59,0.543,1.024-1.288C316.555,225.261,317.482,223.128,319.209,222.501z"/>
		<path style="fill:#FFA8A7;" d="M315.071,244.263c0,0,1.552,4.221-0.435,8.317c-1.986,4.096-4.717,6.579-8.193,7.944
			c-3.476,1.365-25.292,3.415-26.626,3.29c-1.974-0.186-25.261-14.027-26.813-14.586c-1.552-0.559-9.869-3.227-10.924-4.965
			c-1.055-1.738,0-2.979,0-2.979s-0.497-2.002,0.993-2.793c0,0-0.326-2.188,1.629-2.979c0,0-4.469-6.098-4.655-6.843
			s2.281-1.303,5.027,1.815c2.746,3.119,3.538,3.677,3.538,3.677l4.259,3.515c0,0,1.606-5.796,4.446-5.26
			c0,0,0.466,0.163,0.326,0.954c-0.14,0.791-0.698,2.374-0.861,3.794c-0.163,1.42,0.14,4.655,0.14,4.655s20.412,10.14,21.778,10.202
			c1.365,0.062,26.8-7.634,30.654-7.696C313.209,244.263,315.071,244.263,315.071,244.263z"/>
	</g>
</g>
</svg>
